<svg xmlns="http://www.w3.org/2000/svg" xmlns:xlink="http://www.w3.org/1999/xlink" width="33" height="32"><defs><path id="a" d="M53 357.936v4.094c0 .951-.79 1.725-1.76 1.725h-.807v15.52c0 .951-.79 1.725-1.76 1.725H24.327c-.97 0-1.76-.774-1.76-1.725v-15.52h-.806c-.971 0-1.761-.774-1.761-1.725v-4.094c0-.951.79-1.725 1.76-1.725h4.578a4.387 4.387 0 0 1-1.205-3.016s.001-.178.003-.228c.05-1.435.848-2.714 2.136-3.423a4.312 4.312 0 0 1 4.187 0l2.082 1.152a7.179 7.179 0 0 1 2.959 3.085 7.178 7.178 0 0 1 2.959-3.085l2.082-1.151a4.31 4.31 0 0 1 4.187 0c1.288.708 2.087 1.987 2.136 3.422.002.05.003.228.003.228a4.386 4.386 0 0 1-1.205 3.016h4.577c.971 0 1.761.774 1.761 1.725zm-15.725-1.725h6.047c1.697 0 3.078-1.353 3.078-3.016 0 0 0-.145-.002-.18-.032-.928-.55-1.757-1.388-2.218a2.83 2.83 0 0 0-2.748 0l-2.082 1.15a5.686 5.686 0 0 0-2.905 4.264zM26.6 353.195c0 1.663 1.38 3.016 3.078 3.016h6.047a5.686 5.686 0 0 0-2.905-4.264l-2.082-1.15a2.829 2.829 0 0 0-2.748 0c-.837.46-1.356 1.29-1.388 2.218l-.002.18zm6.6 12.746v-2.186h-9.167v15.52c0 .159.132.288.294.288H33.2v-12.185h-3.02a.726.726 0 0 1-.732-.718c0-.397.328-.719.733-.719zm0-8.293H21.76a.291.291 0 0 0-.293.288v4.094a.29.29 0 0 0 .294.288H33.2zm5.133 0h-3.666v21.915h3.666zm10.634 21.627v-15.52H39.8v2.186h2.794c.405 0 .734.322.734.719a.726.726 0 0 1-.734.718H39.8v12.185h8.873a.291.291 0 0 0 .294-.288zm2.566-17.245v-4.094a.291.291 0 0 0-.294-.288H39.8v4.67h11.44a.291.291 0 0 0 .294-.288zm-6.189 4.63c0-.397.329-.72.734-.72h.073c.405 0 .733.323.733.72a.726.726 0 0 1-.733.718h-.073a.726.726 0 0 1-.734-.718zm-19.453 0c0-.397.328-.72.733-.72h.074c.405 0 .733.323.733.72a.726.726 0 0 1-.733.718h-.074a.726.726 0 0 1-.733-.718z"/></defs><g transform="translate(-20 -349)"><use xlink:href="#a"/><use fill="#f50049" xlink:href="#a"/></g></svg>